<?xml version="1.0" encoding="utf-8"?>
<!-- Generator: Adobe Illustrator 23.0.1, SVG Export Plug-In . SVG Version: 6.00 Build 0)  -->
<svg version="1.1" id="Layer_1" xmlns="http://www.w3.org/2000/svg" xmlns:xlink="http://www.w3.org/1999/xlink" x="0px" y="0px"
	 viewBox="0 0 2506.1 528.4" style="enable-background:new 0 0 2506.1 528.4;" xml:space="preserve">
<style type="text/css">
	.st0{fill-rule:evenodd;clip-rule:evenodd;fill:#072654;}
	.st1{fill-rule:evenodd;clip-rule:evenodd;fill:#3395FF;}
</style>
<title>Group</title>
<desc>Created with Sketch.</desc>
<g id="Page-1">
	<g id="Group">
		<path id="Fill-1" class="st0" d="M591.2,197.9c-3.9,14.6-11.5,25.3-22.8,32.2c-11.3,6.8-27.1,10.3-47.5,10.3h-64.8l22.7-84.8h64.8
			c20.4,0,34.4,3.4,42,10.3C593.3,172.6,595.1,183.3,591.2,197.9 M658.3,196.1c8.2-30.7,4.8-54.3-10.2-70.7
			c-15.1-16.4-41.5-24.6-79.2-24.6H424.3l-87,324.8h70.2l35.1-130.9h46.1c10.3,0,18.5,1.7,24.4,5c6,3.4,9.4,9.3,10.5,17.8
			l12.5,108.1h75.3l-12.2-100.8c-2.5-22.5-12.8-35.7-30.9-39.7c23.1-6.7,42.4-17.8,58-33.3C641.8,236.2,652.5,217.7,658.3,196.1"/>
		<path id="Fill-3" class="st0" d="M829,309.2c-5.9,21.9-14.9,38.6-27.1,50.2c-12.2,11.6-26.8,17.3-43.9,17.3
			c-17.4,0-29.1-5.7-35.3-17.1c-6.2-11.4-6.4-27.9-0.7-49.5c5.8-21.6,15-38.5,27.7-50.6c12.7-12.2,27.5-18.2,44.6-18.2
			c17,0,28.5,5.9,34.5,17.6C834.8,270.5,834.9,287.3,829,309.2L829,309.2z M859.8,194.3l-8.8,32.8c-3.8-11.9-11.2-21.3-22.1-28.3
			c-10.9-7-24.4-10.5-40.5-10.5c-19.8,0-38.8,5.1-57,15.3c-18.2,10.2-34.2,24.6-47.8,43.1c-13.6,18.6-23.6,39.7-30,63.4
			c-6.4,23.7-7.6,44.6-3.8,62.7c3.8,18.1,12.1,32,24.9,41.7c12.7,9.7,29.2,14.6,49.2,14.6c16.1,0,31.5-3.3,46-10
			c14.6-6.7,26.9-16,37.1-27.8l-9.2,34.2h68l62-231.3H859.8z"/>
		<polygon id="Fill-5" class="st0" points="1172.1,194.3 974.6,194.3 960.8,245.8 1075.7,245.8 923.8,377.2 910.8,425.5 
			1114.7,425.5 1128.5,374 1005.4,374 1159.6,240.8 		"/>
		<path id="Fill-7" class="st0" d="M1346,308.7c-6.1,22.8-15.2,39.8-27.2,51.1c-12,11.2-26.5,16.9-43.5,16.9
			c-35.6,0-47.3-22.6-35.2-68c6-22.5,15.1-39.5,27.3-50.9c12.2-11.4,26.9-17.1,44.3-17.1c17,0,28.5,5.7,34.4,17.1
			C1352.1,269.3,1352,286.2,1346,308.7 M1385.7,202.9c-15.6-9.7-35.6-14.6-59.9-14.6c-24.6,0-47.4,4.9-68.5,14.6
			c-21,9.7-38.9,23.7-53.7,42c-14.8,18.2-25.4,39.5-31.9,63.9s-7.3,45.6-2.3,63.9c5,18.2,15.4,32.2,31.2,42
			c15.8,9.7,36,14.6,60.6,14.6c24.3,0,46.9-4.9,67.8-14.6c20.8-9.7,38.6-23.7,53.4-42c14.8-18.2,25.4-39.5,31.9-63.9
			s7.3-45.6,2.3-63.9C1411.7,226.6,1401.4,212.7,1385.7,202.9"/>
		<path id="Fill-9" class="st0" d="M2096.5,309.2c-5.9,21.9-14.9,38.6-27.1,50.2c-12.2,11.6-26.9,17.3-43.9,17.3
			c-17.3,0-29.1-5.7-35.3-17.1c-6.2-11.4-6.4-27.9-0.7-49.5c5.8-21.6,15-38.5,27.7-50.6c12.7-12.2,27.5-18.2,44.6-18.2
			c17,0,28.5,5.9,34.5,17.6C2102.3,270.5,2102.4,287.3,2096.5,309.2L2096.5,309.2z M2127.3,194.3l-8.8,32.8
			c-3.8-11.9-11.2-21.3-22.1-28.3c-10.9-7-24.4-10.5-40.5-10.5c-19.8,0-38.8,5.1-57,15.3c-18.2,10.2-34.2,24.6-47.8,43.1
			c-13.6,18.6-23.6,39.7-30,63.4c-6.4,23.7-7.6,44.6-3.8,62.7c3.8,18.1,12.1,32,24.9,41.7c12.7,9.7,29.2,14.6,49.2,14.6
			c16.1,0,31.5-3.3,46-10c14.6-6.7,26.9-16,37.1-27.8l-9.2,34.2h68l62-231.3H2127.3z"/>
		<path id="Fill-11" class="st0" d="M1628,256.3l17.3-62.9c-5.9-3-13.7-4.6-23.4-4.6c-15.5,0-30.5,3.9-44.9,11.6
			c-12.4,6.7-22.9,16-31.8,27.7l9-33.9l-19.7,0h-48.3L1424,425.5h68.9l32.4-120.9c4.7-17.6,13.2-31.4,25.4-41.3
			c12.2-9.9,27.5-14.8,45.7-14.8C1607.6,248.5,1618.2,251.1,1628,256.3"/>
		<path id="Fill-13" class="st0" d="M1819.8,310.1c-5.8,21.6-14.8,38.1-26.9,49.5c-12.2,11.4-26.8,17.1-43.8,17.1
			c-17,0-28.6-5.8-34.8-17.3c-6.2-11.6-6.3-28.3-0.5-50.2c5.9-21.9,15-38.7,27.4-50.4c12.4-11.7,27.1-17.6,44.2-17.6
			c16.7,0,28.1,6.1,34.1,18.2C1825.5,271.6,1825.6,288.5,1819.8,310.1 M1868,203.6c-12.8-10.2-29.1-15.3-48.8-15.3
			c-17.3,0-33.8,4-49.5,11.9c-15.7,7.9-28.4,18.7-38.1,32.4l0.2-1.5l11.6-36.8H1730v0h-53.9l-17.1,63.9c-0.2,0.7-0.4,1.4-0.6,2.2
			L1587.8,524h68.9l35.6-132.7c3.5,11.8,10.7,21.1,21.7,27.8c11,6.7,24.5,10,40.7,10c20.1,0,39.2-4.9,57.3-14.6
			c18.1-9.7,33.9-23.6,47.2-41.7c13.4-18.1,23.2-39,29.6-62.7c6.4-23.7,7.7-44.8,4-63.4C1889,228.2,1880.7,213.8,1868,203.6"/>
		<path id="Fill-15" class="st0" d="M2480.5,194.3L2480.5,194.3l-41.7-0.1c-1.3,0-2.5,0-3.7,0.1h-21.7l-11.1,15.4
			c-0.9,1.2-1.8,2.3-2.7,3.7l-1.2,1.8l-88,122.6l-18.2-143.5h-72.1l36.5,218.1L2176,524h2.3h41.2h28.4l19.5-27.7
			c0.6-0.8,1.1-1.5,1.7-2.4l22.8-32.3l0.7-0.9l102-144.6L2480.5,194.3L2480.5,194.3L2480.5,194.3z"/>
		<polygon id="Fill-17" class="st1" points="160.2,138 139.6,213.8 257.6,137.5 180.5,425.4 258.8,425.5 372.8,0.3 		"/>
		<path id="Fill-19" class="st0" d="M33.2,304.5l-32.4,121h160.6c0,0,65.7-246.2,65.7-246.2C227.1,179.3,33.2,304.5,33.2,304.5"/>
	</g>
</g>
</svg>
