<?xml version="1.0" encoding="utf-8"?>
<!-- Generator: Adobe Illustrator 23.0.1, SVG Export Plug-In . SVG Version: 6.00 Build 0)  -->
<svg version="1.1" id="Layer_1" xmlns="http://www.w3.org/2000/svg" xmlns:xlink="http://www.w3.org/1999/xlink" x="0px" y="0px"
	 viewBox="0 0 1109 528.4" style="enable-background:new 0 0 1109 528.4;" xml:space="preserve">
<style type="text/css">
	.st0{fill-rule:evenodd;clip-rule:evenodd;fill:#1E398C;}
	.st1{fill-rule:evenodd;clip-rule:evenodd;fill:#00ADEE;}
</style>
<g>
	<path class="st0" d="M3.4,144.4c0-7,7-10.4,10.4-10.4h114.7c34.8,3.5,59.1,20.9,62.6,69.5v62.6c0,10.4,0,17.4-3.5,27.8
		c-10.4,31.3-31.3,45.2-62.6,48.7H73v76.5c0,0-3.5,3.5-10.4,3.5H10.4c-7,0-10.4-3.5-10.4-10.4L3.4,144.4z M76.4,203.5h27.8
		c7,0,13.9,7,13.9,13.9v34.8c0,7-7,13.9-13.9,13.9H76.4V203.5z M243.3,130.5h80c45.2,3.5,73,27.8,69.5,76.5v187.7
		c0,13.9-13.9,24.3-27.8,24.3H260.7c-31.3,0-52.1-24.3-55.6-48.7s0-52.1,0-73c0-34.8,24.3-73,62.6-73h45.2c13.9,0,10.4-27.8,0-27.8
		h-66.1c-7,0-10.4-3.5-10.4-10.4v-48.7C232.9,134,239.8,130.5,243.3,130.5z M288.5,293.9h24.3c7,0,10.4,3.5,10.4,10.4v41.7
		c0,7-3.5,10.4-10.4,10.4h-24.3c-7,0-10.4-3.5-10.4-10.4v-41.7C278.1,297.4,281.5,293.9,288.5,293.9z M417.1,144.4v118.2
		c3.5,38.2,34.8,66.1,73,66.1h34.8c13.9,0,13.9,24.3,0,24.3h-73c-7,0-10.4,3.5-10.4,10.4v52.1c0,7,3.5,10.4,10.4,10.4h66.1
		c55.6,0,86.9-27.8,86.9-86.9V141c0-7-3.5-10.4-7-10.4h-55.6c-3.5,0-7,7-7,10.4v107.8c0,3.5-3.5,7-7,7h-27.8
		c-7,0-10.4-3.5-10.4-10.4V144.4c0-7-3.5-10.4-10.4-10.4h-55.6C420.6,130.5,417.1,137.5,417.1,144.4z"/>
	<path class="st1" d="M632.7,193.1V141c0-7,3.5-10.4,10.4-10.4H657c31.3-7,38.2-24.3,59.1-45.2c10.4-13.9,20.9-17.4,31.3-3.5v48.7
		h27.8c7,0,10.4,3.5,10.4,10.4v52.1c0,7-3.5,10.4-10.4,10.4h-27.8v208.6c0,7-3.5,10.4-10.4,10.4h-52.1c-7,0-10.4-3.5-10.4-10.4
		V203.5h-31.3C639.6,203.5,632.7,200.1,632.7,193.1z M994.2,408.6c0,7-7,13.9-13.9,13.9h-48.7c-7,0-13.9-7-13.9-13.9V217.4
		c0-20.9-41.7-24.3-41.7,0v191.2c0,7-7,13.9-13.9,13.9h-48.7c-7,0-13.9-7-13.9-13.9V144.4c0-7,7-13.9,13.9-13.9H869
		c7,0,13.9,7,13.9,13.9v3.5c27.8-27.8,76.5-20.9,100.8,7c48.7-59.1,128.6-10.4,125.1,52.1v201.6c0,7-7,13.9-13.9,13.9h-48.7
		c-7,0-13.9-7-13.9-13.9V217.4c-3.5-27.8-41.7-20.9-41.7,0C994.2,280,994.2,346.1,994.2,408.6z"/>
</g>
</svg>
