<svg xmlns="http://www.w3.org/2000/svg" xmlns:xlink="http://www.w3.org/1999/xlink" viewBox="0 0 153.18 84.19"><defs><style>.cls-1{fill:url(#linear-gradient);}.cls-2{fill:url(#linear-gradient-2);}.cls-3{fill:#009ee2;fill-rule:evenodd;}.cls-4{mask:url(#mask);}.cls-5{mask:url(#mask-2);}.cls-6{fill:#211451;}</style><linearGradient id="linear-gradient" x1="-3.53" y1="730.96" x2="-11.88" y2="735.18" gradientTransform="translate(67.22 -720.18)" gradientUnits="userSpaceOnUse"><stop offset="0" stop-color="#fff"/><stop offset="1"/></linearGradient><linearGradient id="linear-gradient-2" x1="-13.74" y1="742.52" x2="0.43" y2="736.21" gradientTransform="translate(70.9 -714.17)" xlink:href="#linear-gradient"/><mask id="mask" x="48.44" y="4.73" width="20.49" height="17.15" maskUnits="userSpaceOnUse"><rect class="cls-1" x="48.44" y="4.73" width="20.49" height="17.15"/></mask><mask id="mask-2" x="55.25" y="18.52" width="15.42" height="14.49" maskUnits="userSpaceOnUse"><rect class="cls-2" x="55.25" y="18.52" width="15.42" height="14.49"/></mask></defs><title>Asset 1</title><g id="Layer_2" data-name="Layer 2"><g id="Layer_1-2" data-name="Layer 1"><path class="cls-3" d="M78.52,49.45c7.7.45,11.12-.92,10.57-4a14,14,0,0,1-.37-3.31c1.23-.92,1.55-2,.2-3.34,1-.33,1.51-1.08,1.19-2.45a2.3,2.3,0,0,1,.7-2.54c2.77-1.26,3-2.67,1.87-4.16-1-1.2-2.05-2.41-3.07-3.61a6,6,0,0,1-1.16-3.86l-.12-6.83c-3.1-17.1-21.7-18.2-33.71-11.58a22.42,22.42,0,0,0-2.87,2.16L68.94,19.67c5.47,5.25-3.28,12.45-8.83,13.34L55.25,21.88a11.66,11.66,0,0,0-3.65,7.44,13.76,13.76,0,0,0,.16,3.18c2,11.61,12.79,15.66,26.76,17"/><g class="cls-4"><path class="cls-3" d="M68.94,19.67,50.27,4.73,48.44,6.31l6.81,15.57a11.52,11.52,0,0,1,4.17-2.52c.5-.16,1-.29,1.52-.41l.19,0h0c3.08-.66,6.2-.52,7.81.76"/></g><g class="cls-5"><path class="cls-3" d="M68.94,19.67c5.47,5.25-3.28,12.45-8.83,13.34L55.25,21.88a11.52,11.52,0,0,1,4.17-2.52c.5-.16,1-.29,1.52-.41l.19,0h0c3.08-.66,6.2-.52,7.81.76"/></g><path class="cls-6" d="M145.45,64.38v-4.8H143.9v-.65h3.75v.65h-1.57v4.8Z"/><path class="cls-6" d="M148.66,64.38V58.93h.94l1.13,3.86.22.8.25-.87,1.14-3.79h.84v5.45h-.6V59.82l-1.38,4.56h-.56l-1.38-4.63v4.63Z"/><path class="cls-6" d="M138.79,76.17a1.87,1.87,0,0,0,.58-1.33,1.72,1.72,0,0,0-1.73-1.76,1.62,1.62,0,0,0-1.11.4A6.85,6.85,0,0,1,132,75.13a5.3,5.3,0,0,1-5.47-4.82h11.9a2,2,0,0,0,2.05-2.08c0-4.39-3-9.35-9-9.35-5.43,0-9.28,4.46-9.28,9.89v.07A9.47,9.47,0,0,0,132,78.69a9.71,9.71,0,0,0,6.83-2.52m-12.26-8.73c.4-3,2.27-5,4.93-5,2.88,0,4.53,2.2,4.82,5ZM91.94,76.28a2.18,2.18,0,0,0,4.35,0V67.55c0-2.91,1.66-4.71,4.07-4.71s3.84,1.65,3.84,4.6v8.84a2.18,2.18,0,0,0,4.35,0V67.55c0-3.06,1.69-4.71,4.07-4.71s3.84,1.62,3.84,4.64v8.8a2.15,2.15,0,0,0,2.2,2.16,2.12,2.12,0,0,0,2.15-2.16V66.14c0-4.63-2.51-7.26-6.65-7.26a7.64,7.64,0,0,0-6.4,3.35,6,6,0,0,0-5.68-3.35,6.82,6.82,0,0,0-5.79,3.28v-.9a2.19,2.19,0,0,0-2.19-2.2,2.16,2.16,0,0,0-2.16,2.2Zm-16.5-1.4c-3,0-5.54-2.45-5.54-6.08v-.07c0-3.63,2.59-6.07,5.54-6.07s5.43,2.41,5.43,6.07v.07C80.87,72.54,78.42,74.88,75.44,74.88ZM65.66,82A2.18,2.18,0,0,0,70,82V75.31a7.76,7.76,0,0,0,6.47,3.34c4.5,0,8.81-3.56,8.81-9.85v-.07c0-6.32-4.35-9.85-8.81-9.85A7.61,7.61,0,0,0,70,62.44V61.26a2.19,2.19,0,0,0-2.19-2.2,2.16,2.16,0,0,0-2.16,2.2ZM63.07,61.26a2.21,2.21,0,0,0-2.2-2.2,2.19,2.19,0,0,0-2.19,2.2V70c0,3-1.76,4.67-4.28,4.67s-4.06-1.65-4.06-4.6v-8.8a2.18,2.18,0,1,0-4.35,0v10.1c0,4.42,2.48,7.29,6.76,7.29a6.81,6.81,0,0,0,5.93-3.34v1a2.2,2.2,0,0,0,4.39,0ZM28.8,62.66c2.92,0,5.5,2.41,5.5,6.07v.07c0,3.63-2.58,6.08-5.5,6.08s-5.46-2.41-5.46-6.08v-.07C23.34,65,25.82,62.66,28.8,62.66ZM38.58,54a2.18,2.18,0,0,0-4.35,0v8.23a7.75,7.75,0,0,0-6.47-3.35c-4.53,0-8.81,3.56-8.81,9.85v.07c0,6.29,4.35,9.85,8.81,9.85a7.59,7.59,0,0,0,6.47-3.56v1.19a2.18,2.18,0,0,0,4.35,0Zm-22,22.17a1.87,1.87,0,0,0,.58-1.33,1.72,1.72,0,0,0-1.73-1.76,1.62,1.62,0,0,0-1.11.4,6.85,6.85,0,0,1-4.5,1.65,5.3,5.3,0,0,1-5.46-4.82h11.9a2,2,0,0,0,2.05-2.08c0-4.39-3-9.35-9-9.35C3.85,58.88,0,63.34,0,68.77v.07a9.47,9.47,0,0,0,9.74,9.85A9.71,9.71,0,0,0,16.57,76.17ZM4.31,67.44c.4-3,2.27-5,4.93-5,2.88,0,4.53,2.2,4.82,5Z"/></g></g></svg>