<?xml version="1.0" encoding="utf-8"?>
<!-- Generator: Adobe Illustrator 23.0.1, SVG Export Plug-In . SVG Version: 6.00 Build 0)  -->
<svg version="1.1" id="Layer_1" xmlns="http://www.w3.org/2000/svg" xmlns:xlink="http://www.w3.org/1999/xlink" x="0px" y="0px"
	 viewBox="0 0 153.2 84.2" style="enable-background:new 0 0 153.2 84.2;" xml:space="preserve">
<style type="text/css">
	.st0{fill-rule:evenodd;clip-rule:evenodd;fill:#FFFFFF;}
	.st1{filter:url(#Adobe_OpacityMaskFilter);}
	.st2{enable-background:new    ;}
	.st3{clip-path:url(#SVGID_3_);fill:url(#SVGID_4_);}
	.st4{mask:url(#SVGID_1_);}
	.st5{clip-path:url(#SVGID_6_);fill-rule:evenodd;clip-rule:evenodd;fill:#FFFFFF;}
	.st6{filter:url(#Adobe_OpacityMaskFilter_1_);}
	.st7{clip-path:url(#SVGID_9_);}
	.st8{clip-path:url(#SVGID_11_);fill:url(#SVGID_12_);}
	.st9{mask:url(#SVGID_7_);}
	.st10{clip-path:url(#SVGID_14_);fill-rule:evenodd;clip-rule:evenodd;fill:#FFFFFF;}
	.st11{fill:#FFFFFF;}
</style>
<title>Asset 1</title>
<g>
	<path class="st0" d="M78.5,49.2c7.5,0.4,10.8-0.9,10.3-3.9c-0.1-1.1-0.5-2.1-0.4-3.2c1.2-0.9,1.5-1.9,0.2-3.2
		c1-0.3,1.5-1.1,1.1-2.4c-0.2-1-0.1-1.9,0.7-2.5c2.7-1.2,2.9-2.6,1.8-4.1c-1-1.2-2-2.3-3-3.5c-0.7-0.8-1.1-2.1-1.1-3.8L88,16.1
		C85-0.5,66.9-1.6,55.2,4.8c-1,0.6-1.9,1.3-2.8,2.1l16.7,13.4c5.3,5.1-3.2,12.1-8.6,13l-4.7-10.8c-2,1.9-3.3,4.4-3.5,7.2
		c-0.1,1.1,0,2.1,0.1,3.1C54.4,44.1,64.9,48,78.5,49.2"/>
	<defs>
		<filter id="Adobe_OpacityMaskFilter" filterUnits="userSpaceOnUse" x="49.2" y="5.8" width="19.9" height="16.7">
			<feColorMatrix  type="matrix" values="1 0 0 0 0  0 1 0 0 0  0 0 1 0 0  0 0 0 1 0"/>
		</filter>
	</defs>
	<mask maskUnits="userSpaceOnUse" x="49.2" y="5.8" width="19.9" height="16.7" id="SVGID_1_">
		<g class="st1">
			<rect x="49.2" y="5.8" width="19.9" height="16.7"/>
			<g class="st2">
				<g>
					<defs>
						<rect id="SVGID_2_" x="49.2" y="5.8" width="19.9" height="16.7"/>
					</defs>
					<clipPath id="SVGID_3_">
						<use xlink:href="#SVGID_2_"  style="overflow:visible;"/>
					</clipPath>
					
						<linearGradient id="SVGID_4_" gradientUnits="userSpaceOnUse" x1="-1038.39" y1="1925.3969" x2="-1037.2488" y2="1925.3969" gradientTransform="matrix(-7.1124 3.5956 3.5956 7.1124 -14244.4072 -9948.8828)">
						<stop  offset="0" style="stop-color:#FFFFFF"/>
						<stop  offset="1" style="stop-color:#1D1D1B"/>
					</linearGradient>
					<polygon class="st3" points="75.9,19.1 53.3,30.5 42.5,9.2 65.1,-2.2 					"/>
				</g>
			</g>
		</g>
	</mask>
	<g class="st4">
		<g>
			<defs>
				<rect id="SVGID_5_" x="49.2" y="5.8" width="19.9" height="16.7"/>
			</defs>
			<clipPath id="SVGID_6_">
				<use xlink:href="#SVGID_5_"  style="overflow:visible;"/>
			</clipPath>
			<path class="st5" d="M69.2,20.3L51,5.8l-1.8,1.5l6.6,15.1c1.1-1.1,2.5-1.9,4.1-2.4c0.5-0.2,1-0.3,1.5-0.4c0.1,0,0.1,0,0.2,0l0,0
				C64.6,18.9,67.6,19.1,69.2,20.3"/>
		</g>
	</g>
	<defs>
		<filter id="Adobe_OpacityMaskFilter_1_" filterUnits="userSpaceOnUse" x="55.8" y="19.2" width="15" height="14.1">
			<feColorMatrix  type="matrix" values="1 0 0 0 0  0 1 0 0 0  0 0 1 0 0  0 0 0 1 0"/>
		</filter>
	</defs>
	<mask maskUnits="userSpaceOnUse" x="55.8" y="19.2" width="15" height="14.1" id="SVGID_7_">
		<g class="st6">
			<g>
				<defs>
					<rect id="SVGID_8_" x="55.8" y="19.2" width="15" height="14.1"/>
				</defs>
				<clipPath id="SVGID_9_">
					<use xlink:href="#SVGID_8_"  style="overflow:visible;"/>
				</clipPath>
				<rect x="55.8" y="18.9" class="st7" width="18.6" height="14.3"/>
				<g class="st2">
					<g>
						<defs>
							<rect id="SVGID_10_" x="55.8" y="19.2" width="15" height="14.1"/>
						</defs>
						<clipPath id="SVGID_11_" class="st7">
							<use xlink:href="#SVGID_10_"  style="overflow:visible;"/>
						</clipPath>
						
							<linearGradient id="SVGID_12_" gradientUnits="userSpaceOnUse" x1="-792.8585" y1="2201.6885" x2="-791.7172" y2="2201.6885" gradientTransform="matrix(12.0643 -5.3777 -5.3777 -12.0643 21462.9297 22326.7891)">
							<stop  offset="0" style="stop-color:#FFFFFF"/>
							<stop  offset="1" style="stop-color:#1D1D1B"/>
						</linearGradient>
						<polygon class="st8" points="50.6,21.5 68.4,13.6 76.1,30.9 58.3,38.8 						"/>
					</g>
				</g>
			</g>
		</g>
	</mask>
	<g class="st9">
		<g>
			<defs>
				<rect id="SVGID_13_" x="55.8" y="19.2" width="15" height="14.1"/>
			</defs>
			<clipPath id="SVGID_14_">
				<use xlink:href="#SVGID_13_"  style="overflow:visible;"/>
			</clipPath>
			<path class="st10" d="M69.2,20.3c5.3,5.1-3.2,12.1-8.6,13l-4.7-10.8c1.1-1.1,2.5-1.9,4.1-2.4c0.5-0.2,1-0.3,1.5-0.4
				c0.1,0,0.1,0,0.2,0l0,0C64.6,18.9,67.6,19.1,69.2,20.3"/>
		</g>
	</g>
	<polygon class="st11" points="143.5,63.7 143.5,59.1 142,59.1 142,58.5 145.6,58.5 145.6,59.1 144.1,59.1 144.1,63.7 	"/>
	<path class="st11" d="M146.6,63.7v-5.3h0.9l1.1,3.7l0.2,0.8c0.1-0.2,0.1-0.5,0.2-0.8l1.1-3.7h0.8v5.3h-0.6v-4.4l-1.3,4.4h-0.5
		l-1.3-4.5v4.5H146.6z"/>
	<path class="st11" d="M137,75.2c0.3-0.3,0.6-0.8,0.6-1.3c0-1-0.7-1.7-1.7-1.7c-0.5,0-0.8,0.1-1.1,0.4c-1.2,1-2.6,1.6-4.4,1.6
		c-2.7,0-4.9-1.7-5.3-4.7h11.6c1.1,0,2-0.8,2-2c0-4.3-2.9-9.1-8.8-9.1c-5.3,0-9,4.3-9,9.6v0.1c0,5.7,4.1,9.6,9.5,9.6
		C133.3,77.7,135.4,76.7,137,75.2 M125.1,66.7c0.4-2.9,2.2-4.9,4.8-4.9c2.8,0,4.4,2.1,4.7,4.9H125.1z M91.5,75.3
		c0,1.2,0.9,2.1,2.1,2.1c1.2,0,2.1-0.9,2.1-2.1v-8.5c0-2.8,1.6-4.6,3.9-4.6c2.3,0,3.7,1.6,3.7,4.5v8.6c0,1.2,0.9,2.1,2.1,2.1
		c1.2,0,2.1-0.9,2.1-2.1v-8.5c0-3,1.6-4.6,3.9-4.6c2.4,0,3.7,1.6,3.7,4.5v8.6c0,1.2,0.9,2.1,2.1,2.1c1.2,0,2.1-0.9,2.1-2.1v-9.9
		c0-4.5-2.4-7.1-6.5-7.1c-2.8,0-4.8,1.3-6.2,3.2c-1-2-2.9-3.2-5.5-3.2c-2.8,0-4.4,1.5-5.6,3.2v-0.9c0-1.2-0.9-2.1-2.1-2.1
		c-1.2,0-2.1,0.9-2.1,2.1V75.3z M75.5,74c-2.9,0-5.4-2.4-5.4-5.9V68c0-3.5,2.5-5.9,5.4-5.9c2.9,0,5.3,2.3,5.3,5.9v0.1
		C80.7,71.7,78.4,74,75.5,74 M66,80.9c0,1.2,0.9,2.1,2.1,2.1c1.2,0,2.1-0.9,2.1-2.1v-6.5c1.3,1.7,3.2,3.2,6.3,3.2
		c4.4,0,8.6-3.5,8.6-9.6V68c0-6.1-4.2-9.6-8.6-9.6c-3,0-4.9,1.5-6.3,3.5v-1.2c0-1.2-0.9-2.1-2.1-2.1c-1.2,0-2.1,0.9-2.1,2.1V80.9z
		 M63.4,60.7c0-1.2-1-2.1-2.1-2.1c-1.2,0-2.1,0.9-2.1,2.1v8.5c0,2.9-1.7,4.5-4.2,4.5c-2.5,0-3.9-1.6-3.9-4.5v-8.6
		c0-1.2-0.9-2.1-2.1-2.1c-1.2,0-2.1,0.9-2.1,2.1v9.8c0,4.3,2.4,7.1,6.6,7.1c2.9,0,4.6-1.5,5.8-3.2v0.9c0,1.2,1,2.1,2.1,2.1
		c1.2,0,2.1-0.9,2.1-2.1V60.7z M30.1,62.1c2.8,0,5.3,2.3,5.3,5.9v0.1c0,3.5-2.5,5.9-5.3,5.9c-2.9,0-5.3-2.3-5.3-5.9V68
		C24.8,64.3,27.2,62.1,30.1,62.1 M39.7,53.7c0-1.2-0.9-2.1-2.1-2.1c-1.2,0-2.1,0.9-2.1,2.1v8c-1.3-1.7-3.3-3.2-6.3-3.2
		c-4.4,0-8.6,3.5-8.6,9.6v0.1c0,6.1,4.2,9.6,8.6,9.6c3,0,4.9-1.5,6.3-3.5v1.2c0,1.2,0.9,2.1,2.1,2.1c1.2,0,2.1-0.9,2.1-2.1V53.7z
		 M18.3,75.2c0.3-0.3,0.6-0.8,0.6-1.3c0-1-0.7-1.7-1.7-1.7c-0.5,0-0.8,0.1-1.1,0.4c-1.2,1-2.6,1.6-4.4,1.6c-2.7,0-4.9-1.7-5.3-4.7
		h11.6c1.1,0,2-0.8,2-2c0-4.3-2.9-9.1-8.8-9.1c-5.3,0-9,4.3-9,9.6v0.1c0,5.7,4.1,9.6,9.5,9.6C14.5,77.7,16.6,76.7,18.3,75.2
		 M6.3,66.7c0.4-2.9,2.2-4.9,4.8-4.9c2.8,0,4.4,2.1,4.7,4.9H6.3z"/>
</g>
</svg>
