<svg xmlns="http://www.w3.org/2000/svg" viewBox="0 0 25.31 25.31"><title>Asset 4</title><g id="Layer_2" data-name="Layer 2"><g id="Layer_1-2" data-name="Layer 1"><path d="M25.31,6.57c-.14.68-.29,1.35-.44,2-.1.49-.19,1-.31,1.47a1,1,0,0,1-1,.8,1,1,0,0,1-.91-.94A5,5,0,0,1,22.77,9c.1-.54.22-1.08.34-1.63H6.63l.88,8.09H19.24A2.56,2.56,0,0,0,21.62,14c0-.08.08-.16.13-.24A1,1,0,0,1,23,13.4a1,1,0,0,1,.46,1.28,4.42,4.42,0,0,1-4.17,2.76c-4.14,0-8.28,0-12.41,0a1,1,0,1,0-.16,2H19.63a2.92,2.92,0,0,1,.58,5.79l-.14,0h-.69l-.14,0a2.91,2.91,0,0,1-2.4-3.2c0-.2.07-.4.1-.6H12.71c0,.09,0,.16,0,.24a2.88,2.88,0,0,1-1.68,3.36,6.75,6.75,0,0,1-.8.24H9.59a7.36,7.36,0,0,1-.8-.24A2.89,2.89,0,0,1,7.11,21.7c0-.07,0-.14,0-.2A10.62,10.62,0,0,1,6,21.35,3,3,0,0,1,3.82,18.8a3,3,0,0,1,1.5-2.93.35.35,0,0,0,.21-.4c-.29-2.55-.56-5.11-.84-7.66-.11-1-.19-2-.34-2.95A3.38,3.38,0,0,0,1.08,2a1,1,0,0,1-1-.7A1,1,0,0,1,1,0a5.25,5.25,0,0,1,3.6,1.41A5.35,5.35,0,0,1,6.38,5.07c0,.1,0,.2,0,.32H24.05a1.14,1.14,0,0,1,1.26.8ZM10.87,22.38a.94.94,0,1,0-.93.95A.94.94,0,0,0,10.87,22.38Zm8.87-.92a.94.94,0,0,0,0,1.87.93.93,0,0,0,1-.92A.94.94,0,0,0,19.74,21.46Z"/></g></g></svg>