<svg xmlns="http://www.w3.org/2000/svg" xmlns:xlink="http://www.w3.org/1999/xlink" viewBox="0 0 36.03 36.03"><defs><style>.cls-1{fill:url(#linear-gradient);}.cls-2{fill:url(#linear-gradient-2);}.cls-3{fill:#fff;stroke:#808181;stroke-miterlimit:10;stroke-width:0.5px;}.cls-4{fill:#189cd9;fill-rule:evenodd;}.cls-5{mask:url(#mask);}.cls-6{mask:url(#mask-2);}</style><linearGradient id="linear-gradient" x1="-52.93" y1="730.95" x2="-57.26" y2="733.14" gradientTransform="translate(67.22 -720.18)" gradientUnits="userSpaceOnUse"><stop offset="0" stop-color="#fff"/><stop offset="1"/></linearGradient><linearGradient id="linear-gradient-2" x1="-59.99" y1="734.04" x2="-52.65" y2="730.77" gradientTransform="translate(70.9 -714.17)" xlink:href="#linear-gradient"/><mask id="mask" x="6.39" y="7.64" width="10.61" height="8.88" maskUnits="userSpaceOnUse"><rect class="cls-1" x="6.39" y="7.64" width="10.61" height="8.88"/></mask><mask id="mask-2" x="9.92" y="14.78" width="7.99" height="7.51" maskUnits="userSpaceOnUse"><rect class="cls-2" x="9.92" y="14.78" width="7.99" height="7.51"/></mask></defs><title>Asset 1</title><g id="Layer_2" data-name="Layer 2"><g id="Layer_1-2" data-name="Layer 1"><circle class="cls-3" cx="18.02" cy="18.02" r="17.77"/><path class="cls-4" d="M22,30.8c4,.24,5.76-.48,5.48-2.08a7,7,0,0,1-.2-1.71c.64-.48.81-1,.11-1.73.54-.17.78-.56.61-1.27a1.19,1.19,0,0,1,.37-1.31c1.43-.66,1.56-1.39,1-2.16l-1.6-1.87a3.22,3.22,0,0,1-.6-2l-.06-3.54c-1.6-8.86-11.24-9.42-17.46-6A11,11,0,0,0,8.11,8.25L17,15.38c2.83,2.72-1.7,6.45-4.57,6.9L9.92,16.52A6,6,0,0,0,8,20.37,6.85,6.85,0,0,0,8.11,22c1,6,6.62,8.11,13.86,8.78"/><g class="cls-5"><path class="cls-4" d="M17,15.38,7.34,7.64l-1,.82,3.53,8.06a5.87,5.87,0,0,1,2.16-1.3,7.1,7.1,0,0,1,.79-.22l.1,0h0c1.6-.34,3.21-.27,4.05.4"/></g><g class="cls-6"><path class="cls-4" d="M17,15.38c2.83,2.72-1.7,6.45-4.57,6.91L9.92,16.52a5.87,5.87,0,0,1,2.16-1.3,7.1,7.1,0,0,1,.79-.22l.1,0h0c1.6-.34,3.21-.27,4.05.4"/></g></g></g></svg>