<svg xmlns="http://www.w3.org/2000/svg" viewBox="0 0 49.67 49.66"><defs><style>.cls-1{isolation:isolate;}.cls-2{fill:#404042;opacity:0.3;mix-blend-mode:multiply;}.cls-3{fill:#fff;fill-rule:evenodd;}</style></defs><title>Asset 13</title><g class="cls-1"><g id="Layer_2" data-name="Layer 2"><g id="Layer_1-2" data-name="Layer 1"><path class="cls-2" d="M24.83,49.66A24.83,24.83,0,1,1,49.67,24.83,24.85,24.85,0,0,1,24.83,49.66Z"/><path class="cls-3" d="M22.21,24.91v9.77a.26.26,0,0,0,.25.26h3.63a.26.26,0,0,0,.25-.26V24.75H29a.25.25,0,0,0,.26-.23l.25-3a.26.26,0,0,0-.25-.28H26.34V19.13a.9.9,0,0,1,.9-.9h2a.26.26,0,0,0,.26-.25V15a.26.26,0,0,0-.26-.25H25.85a3.64,3.64,0,0,0-3.64,3.64v2.88H20.39a.26.26,0,0,0-.25.26v3a.25.25,0,0,0,.25.25h1.82v.16Z"/></g></g></g></svg>