<svg xmlns="http://www.w3.org/2000/svg" viewBox="0 0 23.85 23.87"><defs><style>.cls-1{fill:#fff;}</style></defs><title>Asset 5</title><g id="Layer_2" data-name="Layer 2"><g id="Layer_1-2" data-name="Layer 1"><path class="cls-1" d="M23.85,12.63H21v-1.4h2.83Z"/><path class="cls-1" d="M11.22,23.87V21h1.4v2.83Z"/><path class="cls-1" d="M11.92,6.86a12.36,12.36,0,0,1,1.27-.79A3.87,3.87,0,0,1,18.82,9a5.71,5.71,0,0,1-1.16,4.49,14.51,14.51,0,0,1-3.15,3.06c-.79.59-1.61,1.13-2.42,1.69a.35.35,0,0,1-.28,0,25.81,25.81,0,0,1-4.58-3.54,7.7,7.7,0,0,1-2.09-3.29,4.68,4.68,0,0,1,1-4.71,3.73,3.73,0,0,1,4.43-.69A14.37,14.37,0,0,1,11.92,6.86Zm0,2.46c-.17-.26-.32-.48-.45-.71A3.21,3.21,0,0,0,10.1,7.35a2.4,2.4,0,0,0-2.82.28,3.15,3.15,0,0,0-.89,3,5.48,5.48,0,0,0,1.37,2.59,19.32,19.32,0,0,0,4.06,3.37.27.27,0,0,0,.23,0c.87-.64,1.75-1.25,2.58-1.93A9.21,9.21,0,0,0,16.93,12a3.86,3.86,0,0,0,.39-3.21,2.38,2.38,0,0,0-1.84-1.75,3.06,3.06,0,0,0-3,1.39C12.28,8.74,12.11,9,11.92,9.32Z"/><path class="cls-1" d="M11.24,0H12.6V2.82H11.24Z"/><path class="cls-1" d="M2.81,11.25v1.37H0V11.25Z"/><path class="cls-1" d="M4,3.08,5.93,5,5,5.94,3.07,4Z"/><path class="cls-1" d="M18.83,5.94,17.92,5l1.91-1.91.92.91Z"/><path class="cls-1" d="M4,20.76l-.93-.93L5,17.92l.92.94Z"/><path class="cls-1" d="M17.9,18.85l.93-.93,1.93,1.93-.93.93Z"/></g></g></svg>