<svg xmlns="http://www.w3.org/2000/svg" viewBox="0 0 30.53 30.52"><title>Asset 6</title><g id="Layer_2" data-name="Layer 2"><g id="Layer_1-2" data-name="Layer 1"><path d="M26.94,24.24H22.8l-.88,2.87H19.19l3.48-10.28a.75.75,0,0,1,.34-.46,1,1,0,0,1,.59-.18h2.52a.85.85,0,0,1,.93.64l3.48,10.28H27.82Zm-.57-1.86-1-3.34a10.48,10.48,0,0,1-.24-1h-.48q0,.16-.12.51c-.06.23-.1.4-.14.52l-1,3.34Z"/><path d="M16.42,27.67l-.18.16v-.58a10.24,10.24,0,0,1,0-7.72V16.12H18.5A10.3,10.3,0,0,1,21,14.29H16.24V8.94h4.43a.36.36,0,0,1,.24.2A16,16,0,0,1,22,13.83a10.2,10.2,0,0,1,1.76-.51,18.93,18.93,0,0,0-1-4.38H27a.27.27,0,0,1,.2.12,12.85,12.85,0,0,1,1.39,4.48,10.24,10.24,0,0,1,1.9.78v0c-.08-.58-.13-1.16-.24-1.73a14.89,14.89,0,0,0-5.35-9.15A15,15,0,0,0,16.86.07L16.28,0H14.43c-.59.08-1.18.13-1.76.24A15.16,15.16,0,0,0,1.45,8.78,14.05,14.05,0,0,0,0,15.85,15.06,15.06,0,0,0,5.15,26.6a14.7,14.7,0,0,0,8,3.77,15.74,15.74,0,0,0,4.95-.09A10.22,10.22,0,0,1,16.42,27.67ZM26,7.16h-3.8a.4.4,0,0,1-.3-.15,18.41,18.41,0,0,0-3.5-4.76s0,0,0-.07A13.25,13.25,0,0,1,26,7.16ZM16.24,2.7A15.94,15.94,0,0,1,20,7.15H16.24Zm-1.82,0V7.13H10.71A16.08,16.08,0,0,1,14.42,2.7Zm0,6.24v5.35H8.6a16.55,16.55,0,0,1,.67-3.78c.15-.47.32-.94.5-1.4A.27.27,0,0,1,10,9Zm-2.1-6.81c-.42.45-.8.84-1.16,1.25A17.11,17.11,0,0,0,8.79,6.9a.4.4,0,0,1-.43.26H4.51A13.64,13.64,0,0,1,12.32,2.13Zm-10.16,10a11.5,11.5,0,0,1,1.1-3A.39.39,0,0,1,3.54,9c1.41,0,2.82,0,4.23,0l.11,0a19.05,19.05,0,0,0-1.07,5.33h-5C1.91,13.56,2,12.84,2.16,12.14Zm1.16,9.28a13.08,13.08,0,0,1-1.47-5,3,3,0,0,1,0-.3H6.8a19,19,0,0,0,1.09,5.45H7.64c-1.34,0-2.67,0-4,0A.43.43,0,0,1,3.32,21.42Zm1.23,1.95H8.41a.41.41,0,0,1,.32.17,18.18,18.18,0,0,0,3.49,4.72s0,.05.08.12A13.66,13.66,0,0,1,4.55,23.37Zm9.86,4.46a16.11,16.11,0,0,1-3.71-4.45h3.71Zm0-6.26h-.21c-1.38,0-2.76,0-4.14,0a.4.4,0,0,1-.3-.15A16,16,0,0,1,8.6,16.12h5.82Z"/></g></g></svg>