<svg xmlns="http://www.w3.org/2000/svg" viewBox="0 0 8.76 14.01"><defs><style>.cls-1{fill:#343434;}</style></defs><title>Asset 3</title><g id="Layer_2" data-name="Layer 2"><g id="Layer_1-2" data-name="Layer 1"><path class="cls-1" d="M.8,0h8V0A15.14,15.14,0,0,1,8,1.34H5.84a3.47,3.47,0,0,1,.6,1.41H8.7s0,0,0,0C8.23,3.65,8,4.08,8,4.09H6.49a4.1,4.1,0,0,1-.55,1.6A3.56,3.56,0,0,1,4.63,6.92a4.6,4.6,0,0,1-2.21.63v0a3.58,3.58,0,0,0,.52.77l3.93,5.38V14a0,0,0,0,1,0,0H5.1C2,9.91.43,7.84.43,7.82V6.57l0-.05a5.43,5.43,0,0,0,1,.07c1.73,0,2.82-.64,3.25-1.92a1.91,1.91,0,0,0,.1-.58H0s0,0,0,0c.52-.86.79-1.29.8-1.29H4.56v0A2.37,2.37,0,0,0,3.31,1.58a3.54,3.54,0,0,0-1.19-.24H0V1.29Q.79,0,.8,0Z"/></g></g></svg>