<svg xmlns="http://www.w3.org/2000/svg" viewBox="0 0 19.91 19.92"><defs><style>.cls-1{fill:#333;}</style></defs><title>Asset 5</title><g id="Layer_2" data-name="Layer 2"><g id="Layer_1-2" data-name="Layer 1"><path class="cls-1" d="M0,7.93C.06,8.3.11,8.67.19,9A7.37,7.37,0,0,0,1,11.11a.8.8,0,0,0,1.1.34.79.79,0,0,0,.25-1.12,5.75,5.75,0,0,1,.49-6.57,5.55,5.55,0,0,1,6-2A5.55,5.55,0,0,1,13.14,6.5a5.82,5.82,0,0,1-8.09,6.23,2.18,2.18,0,0,0-.48-.14.75.75,0,0,0-.77.59.76.76,0,0,0,.41.88,7.12,7.12,0,0,0,2.12.64,7.31,7.31,0,0,0,4.84-1l.08,0,1,1.26c.67.85,1.33,1.71,2,2.53.54.63,1.12,1.22,1.72,1.8A2.33,2.33,0,0,0,19.26,16a23.61,23.61,0,0,0-2.82-2.56l-2.73-2.18.09-.16A7.39,7.39,0,0,0,8,0L7.89,0h-1L6.12.11A7.4,7.4,0,0,0,.2,5.72C.11,6.1.06,6.5,0,6.88Zm12.75,4.53L15,14.21A27.9,27.9,0,0,1,18.11,17a.79.79,0,0,1,0,1.13.77.77,0,0,1-1.12,0,18.24,18.24,0,0,1-1.3-1.34c-1.08-1.31-2.12-2.65-3.18-4a.15.15,0,0,1,0-.05Z"/><path class="cls-1" d="M9.43,5a.79.79,0,0,0,.12.83A2.63,2.63,0,0,1,10,8a3.63,3.63,0,0,1-.28.78A.79.79,0,0,0,10,9.86a.78.78,0,0,0,1.08-.37,4.19,4.19,0,0,0-.32-4.58A.78.78,0,0,0,9.43,5Z"/></g></g></svg>