<svg xmlns="http://www.w3.org/2000/svg" viewBox="0 0 686.03 407.94"><defs><style>.cls-1{fill:#e8e6e9;}.cls-2{fill:#cccccb;}.cls-3{fill:#fff;}.cls-4{fill:#1285c8;}.cls-5{fill:#0c64ae;}.cls-6{fill:#1daae3;}.cls-10,.cls-11,.cls-7,.cls-8,.cls-9{fill:none;stroke-miterlimit:10;stroke-width:3px;}.cls-10,.cls-7,.cls-8,.cls-9{stroke:#fff;}.cls-8{stroke-dasharray:5.16 5.16 5.16 5.16;}.cls-9{stroke-dasharray:5.16 5.16 5.16 5.16 5.16 5.16;}.cls-10,.cls-11{stroke-dasharray:5 5 5 5 5 5;}.cls-11{stroke:#1285c8;}</style></defs><title>Asset 6</title><g id="Layer_2" data-name="Layer 2"><g id="Layer_1-2" data-name="Layer 1"><polygon class="cls-1" points="470.18 404.04 469.51 384.07 536.02 388.64 470.18 404.04"/><polygon class="cls-2" points="475.77 390.84 536.02 388.64 470.18 404.04 475.77 390.84"/><polygon class="cls-3" points="492.19 407.94 536.02 388.64 475.77 390.84 492.19 407.94"/><polygon class="cls-3" points="469.51 384.07 459.01 373.24 536.02 388.64 469.51 384.07"/><polygon class="cls-1" points="452.71 221.98 464.08 205.54 514.75 248.86 452.71 221.98"/><polygon class="cls-2" points="465.07 214.71 514.75 248.86 452.71 221.98 465.07 214.71"/><polygon class="cls-3" points="468.06 238.22 514.75 248.86 465.07 214.71 468.06 238.22"/><polygon class="cls-3" points="464.08 205.54 462.11 190.59 514.75 248.86 464.08 205.54"/><polygon class="cls-1" points="538.86 355.45 540.12 335.51 605.88 346.47 538.86 355.45"/><polygon class="cls-2" points="545.7 342.85 605.88 346.47 538.86 355.45 545.7 342.85"/><polygon class="cls-3" points="560.39 361.45 605.88 346.47 545.7 342.85 560.39 361.45"/><polygon class="cls-3" points="540.12 335.51 530.72 323.71 605.88 346.47 540.12 335.51"/><polygon class="cls-1" points="621.76 289.19 616.92 267.95 686.03 259.65 621.76 289.19"/><polygon class="cls-2" points="624.75 273.96 686.03 259.65 621.76 289.19 624.75 273.96"/><polygon class="cls-3" points="645.11 288.99 686.03 259.65 624.75 273.96 645.11 288.99"/><polygon class="cls-3" points="616.92 267.95 603.93 258.44 686.03 259.65 616.92 267.95"/><polygon class="cls-4" points="410.96 61.26 393.9 50.8 432.85 0 410.96 61.26"/><polygon class="cls-5" points="402.87 49.51 432.85 0 410.96 61.26 402.87 49.51"/><polygon class="cls-6" points="425.84 45.77 432.85 0 402.87 49.51 425.84 45.77"/><polygon class="cls-6" points="393.9 50.8 379.29 53.23 432.85 0 393.9 50.8"/><path class="cls-7" d="M438.35,211.32s-.74-.46-2.18-1.23"/><path class="cls-8" d="M431.56,207.8a136.36,136.36,0,0,0-16.84-6.45"/><path class="cls-9" d="M412.25,200.6c-34.51-10.17-100.08-16.52-177.48,40.31C133.21,315.49,28.14,274.66,5.27,264.25"/><path class="cls-7" d="M2.94,263.17C1.47,262.46.7,262.06.7,262.06"/><path class="cls-10" d="M605.88,289s-122.69,36.61-233-25.79S121.32,250.55.7,299.66"/><path class="cls-10" d="M519.51,349.15s-167.7-26.84-276.22-14.06-235-30.26-235-30.26"/><path class="cls-10" d="M444.18,398.29s-135.42,3-218.83-25.05-217-17.79-217-17.79"/><path class="cls-11" d="M406.07,71.66S339.25,341.35,12.81,376"/></g></g></svg>