<?xml version="1.0" encoding="utf-8"?>
<!-- Generator: Adobe Illustrator 24.0.0, SVG Export Plug-In . SVG Version: 6.00 Build 0)  -->
<svg version="1.1" id="Layer_1" xmlns="http://www.w3.org/2000/svg" xmlns:xlink="http://www.w3.org/1999/xlink" x="0px" y="0px"
	 viewBox="0 0 13.9 11.8" style="enable-background:new 0 0 13.9 11.8;" xml:space="preserve">
<style type="text/css">
	.st0{fill:#169CD8;}
</style>
<title>Asset 2</title>
<g>
	<path class="st0" d="M8.2,5.3H5.7c-0.1,0-0.3,0-0.4,0c-0.9,0.2-1.6,1-1.6,2v0v4v0c0,0.3,0.1,0.5,0.5,0.5l2.8,0l2.7,0
		c0.2,0,0.4-0.1,0.4-0.3c0-0.1,0-0.1,0-0.2V7.4c0-0.2,0-0.3,0-0.5C10,6,9.1,5.3,8.2,5.3z"/>
	<path class="st0" d="M9.4,4.1C9.4,4.1,9.4,4.1,9.4,4.1c0,1,0.8,1.8,1.8,1.8S13,5,13,4.1c0-1-0.8-1.8-1.8-1.8
		C10.2,2.2,9.4,3.1,9.4,4.1C9.4,4.1,9.4,4.1,9.4,4.1z"/>
	<path class="st0" d="M13.9,8.2C13.9,8.1,13.9,8.1,13.9,8.2c-0.1-0.8-0.6-1.4-1.3-1.7c-0.6-0.1-1.1-0.2-1.7-0.1c0,0,0,0.1,0,0.1
		C10.9,6.8,11,7.2,11,7.6v3c0,0.4,0,0.8,0,1.2c0.6,0,1.3,0,1.9,0c0.3,0,0.5-0.2,0.7-0.4c0.1-0.2,0.2-0.4,0.3-0.7L13.9,8.2z"/>
	<path class="st0" d="M4.5,2.4C4.5,3.8,5.5,4.9,6.8,5C7.4,5,8,4.8,8.5,4.4C9.2,4,9.6,3.2,9.6,2.3C9.5,0.9,8.3-0.1,7,0c0,0,0,0,0,0
		C6.9,0,6.8,0,6.8,0C6.7,0,6.6,0,6.5,0c-0.1,0-0.1,0-0.2,0.1c-0.1,0-0.2,0-0.2,0.1C6,0.2,5.9,0.3,5.8,0.3c-0.1,0-0.1,0.1-0.2,0.1
		c-0.1,0-0.1,0.1-0.2,0.1c-0.1,0-0.1,0.1-0.2,0.1C5.2,0.7,5.2,0.8,5.1,0.9C5.1,0.9,5,1,5,1c0,0.1-0.1,0.1-0.1,0.2
		c0,0.1-0.1,0.1-0.1,0.2c0,0.1-0.1,0.2-0.1,0.2c0,0.1-0.1,0.1-0.1,0.2c0,0.1,0,0.2,0,0.2C4.6,2.2,4.5,2.3,4.5,2.4
		C4.5,2.4,4.5,2.4,4.5,2.4C4.5,2.4,4.5,2.4,4.5,2.4C4.5,2.4,4.5,2.4,4.5,2.4z"/>
	<path class="st0" d="M2,6.4C2,6.4,2,6.4,2,6.4c-0.1,0-0.2,0-0.2,0c-0.1,0-0.1,0-0.2,0c-0.1,0-0.1,0-0.2,0.1c-0.1,0-0.1,0-0.2,0.1
		C1.1,6.6,1.1,6.6,1,6.6C1,6.7,0.9,6.7,0.9,6.7c-0.1,0-0.1,0.1-0.1,0.1c0,0-0.1,0.1-0.1,0.1c0,0-0.1,0.1-0.1,0.1
		c0,0.1-0.1,0.1-0.1,0.2c0,0.1-0.1,0.1-0.1,0.2c0,0.1-0.1,0.1-0.1,0.2c0,0.1,0,0.1-0.1,0.2C0.1,7.9,0,7.9,0,8c0,0.1,0,0.1,0,0.2
		c0,0.1,0,0.1,0,0.2c0,0,0,0,0,0.1v2.1c0,0,0,0.1,0,0.1c0,0.1,0,0.1,0,0.2c0,0.1,0,0.2,0.1,0.2c0,0.1,0.1,0.1,0.1,0.2
		c0,0.1,0.1,0.1,0.1,0.2s0.1,0.1,0.2,0.1c0.1,0,0.1,0.1,0.2,0.1c0.1,0,0.2,0,0.2,0.1c0.1,0,0.1,0,0.2,0c0,0,0.1,0,0.1,0H3
		c0-0.2,0-0.3,0-0.5C3,10,3,8.7,3,7.4c0-0.3,0.1-0.6,0.1-0.9c0,0,0-0.1,0-0.1h0H2z"/>
	<path class="st0" d="M2.4,5.8c0.1,0,0.2,0,0.4,0c1,0,1.8-0.8,1.8-1.8c0-0.9-0.7-1.6-1.5-1.8c-0.1,0-0.2,0-0.4,0
		c-0.5,0-0.9,0.2-1.2,0.5c0,0,0,0,0,0C1.4,2.8,1.3,2.9,1.3,3c0,0,0,0,0,0C1.2,3.1,1.2,3.1,1.1,3.2c0,0,0,0,0,0.1C1,3.4,1,3.5,1,3.5
		c0,0,0,0.1,0,0.1c0,0.1,0,0.1,0,0.2c0,0,0,0.1,0,0.1c0,0,0,0.1,0,0.1C0.9,5,1.6,5.7,2.4,5.8z"/>
</g>
</svg>
